<?xml version="1.0" encoding="UTF-8" standalone="no"?>
<!-- Created with Inkscape (http://www.inkscape.org/) -->

<svg
   width="1280"
   height="1280"
   viewBox="0 0 1280 1280"
   version="1.1"
   id="svg1"
   xmlns:xlink="http://www.w3.org/1999/xlink"
   xmlns="http://www.w3.org/2000/svg"
   xmlns:svg="http://www.w3.org/2000/svg">
  <defs
     id="defs1">
    <linearGradient
       id="linearGradient20">
      <stop
         style="stop-color:#ff0095;stop-opacity:1;"
         offset="0"
         id="stop20" />
      <stop
         style="stop-color:#ffc24c;stop-opacity:1;"
         offset="1"
         id="stop21" />
    </linearGradient>
    <linearGradient
       id="linearGradient18">
      <stop
         style="stop-color:#ff0095;stop-opacity:1;"
         offset="0"
         id="stop18" />
      <stop
         style="stop-color:#ffc34c;stop-opacity:1;"
         offset="1"
         id="stop19" />
    </linearGradient>
    <linearGradient
       xlink:href="#linearGradient18"
       id="linearGradient19"
       x1="2580"
       y1="640"
       x2="3860"
       y2="640"
       gradientUnits="userSpaceOnUse" />
    <linearGradient
       xlink:href="#linearGradient20"
       id="linearGradient21"
       x1="1290"
       y1="640"
       x2="2570"
       y2="640"
       gradientUnits="userSpaceOnUse"
       gradientTransform="translate(2580)" />
  </defs>
  <g
     id="layer2"
     style="display:inline">
    <rect
       style="fill:#ffffff;fill-opacity:1;fill-rule:evenodd;stroke:none;stroke-width:10;stroke-linecap:round"
       id="rect16"
       width="1280"
       height="1280"
       x="1290"
       y="0" />
    <rect
       style="fill:#ffffff;fill-opacity:1;fill-rule:evenodd;stroke:none;stroke-width:10;stroke-linecap:round"
       id="rect17"
       width="1280"
       height="1280"
       x="3870"
       y="0" />
    <rect
       style="fill:url(#linearGradient19);fill-rule:evenodd;stroke:none;stroke-width:10;stroke-linecap:round"
       id="rect18"
       width="1280"
       height="1280"
       x="2580"
       y="0" />
  </g>
  <g
     id="layer1"
     style="display:none">
    <path
       d="M 640,0 A 640,640 0 0 0 0,640 640,640 0 0 0 640,1280 640,640 0 0 0 1280,640 640,640 0 0 0 640,0 Z m 0,36 A 544,544 0 0 1 1184,580 544,544 0 0 1 640,1124 544,544 0 0 1 96,580 544,544 0 0 1 640,36 Z"
       style="opacity:1;fill:#000000;fill-opacity:1;fill-rule:evenodd;stroke-width:11.4332;stroke-linecap:round"
       id="path9" />
  </g>
  <g
     id="layer3"
     style="display:none">
    <path
       d="M 625.92987,364.89253 C 220.52145,366.00093 280.80404,858.47664 72.80404,804.47664 l 190.63082,320.63086 642.52329,70 150.63085,-120.6309 C 788.47837,906.70313 782.03241,666.07373 782.03241,666.07373 c 92.54061,-33.11376 245.71829,-76.0238 292.41719,59.46306 69.4395,-176.02314 -43.1113,-361.75266 -448.51973,-360.64426 z"
       style="opacity:1;fill:#000000;fill-opacity:1;stroke-width:1.1768px"
       id="path8" />
  </g>
  <g
     id="layer4"
     style="display:none">
    <circle
       style="opacity:1;fill:#ffffff;fill-opacity:1;fill-rule:evenodd;stroke:none;stroke-width:15.5263;stroke-linecap:round"
       id="path10"
       cy="483.66101"
       cx="645.68542"
       r="83.438599" />
    <rect
       style="opacity:1;fill:#000000;fill-opacity:1;fill-rule:evenodd;stroke:none;stroke-width:10.318;stroke-linecap:round"
       id="rect10"
       width="212.13203"
       height="96.166519"
       x="537.60217"
       y="377.38687" />
  </g>
  <g
     id="layer5">
    <path
       d="M 1930,0 C 1760.2621,0 1597.474,67.42837 1477.4512,187.45117 1357.4284,307.47397 1290,470.26213 1290,640 c 0,169.73787 67.4284,332.52603 187.4512,452.5488 C 1597.474,1212.5716 1760.2621,1280 1930,1280 c 169.7379,0 332.526,-67.4284 452.5488,-187.4512 C 2502.5716,972.52603 2570,809.73787 2570,640 2570,470.26213 2502.5716,307.47397 2382.5488,187.45117 2262.526,67.42837 2099.7379,0 1930,0 Z m 0,36 c 144.2772,0 282.6466,57.314603 384.666,159.33398 C 2416.6854,297.35337 2474,435.72281 2474,580 c -0.361,169.03263 -79.2769,328.29505 -213.5508,430.9727 -183.3557,-158.94765 -188.416,-344.89848 -188.416,-344.89848 92.54,-33.11353 245.7174,-76.02302 292.416,59.46289 69.439,-176.02191 -43.1139,-361.75292 -448.5195,-360.64453 -351.0268,0.95972 -353.0208,370.06363 -482.2363,434.07617 C 1402.7709,730.08055 1386.5284,655.5083 1386,580 1386,435.72281 1443.3146,297.35337 1545.334,195.33398 1647.3534,93.314603 1785.7228,36 1930,36 Z m -75.7441,437.55273 h 164.205 c 0.4259,3.35257 0.6476,6.72797 0.6641,10.10743 5e-4,46.08225 -37.3572,83.43992 -83.4394,83.43945 -46.0823,4.7e-4 -83.44,-37.3572 -83.4395,-83.43945 0.461,-3.40732 1.1322,-6.78293 2.0098,-10.10743 z"
       style="fill:#282828;fill-opacity:1;stroke-width:1.1768px"
       id="path13" />
    <path
       d="M 4510,0 C 4340.2621,0 4177.474,67.42837 4057.4512,187.45117 3937.4284,307.47397 3870,470.26213 3870,640 c 0,169.73787 67.4284,332.52603 187.4512,452.5488 C 4177.474,1212.5716 4340.2621,1280 4510,1280 c 169.7379,0 332.526,-67.4284 452.5488,-187.4512 C 5082.5716,972.52603 5150,809.73787 5150,640 5150,470.26213 5082.5716,307.47397 4962.5488,187.45117 4842.526,67.42837 4679.7379,0 4510,0 Z m 0,36 c 144.2772,0 282.6466,57.314603 384.666,159.33398 C 4996.6854,297.35337 5054,435.72281 5054,580 c -0.361,169.03263 -79.2769,328.29505 -213.5508,430.9727 -183.3557,-158.94765 -188.416,-344.89848 -188.416,-344.89848 92.54,-33.11353 245.7174,-76.02302 292.416,59.46289 69.439,-176.02191 -43.1139,-361.75292 -448.5195,-360.64453 -351.0268,0.95972 -353.0208,370.06363 -482.2363,434.07617 C 3982.7709,730.08055 3966.5284,655.5083 3966,580 3966,435.72281 4023.3146,297.35337 4125.334,195.33398 4227.3534,93.314603 4365.7228,36 4510,36 Z m -75.7441,437.55273 h 164.205 c 0.4259,3.35257 0.6476,6.72797 0.6641,10.10743 5e-4,46.08225 -37.3572,83.43992 -83.4394,83.43945 -46.0823,4.7e-4 -83.44,-37.3572 -83.4395,-83.43945 0.461,-3.40732 1.1322,-6.78293 2.0098,-10.10743 z"
       style="fill:url(#linearGradient21);stroke:#000000;stroke-width:1;stroke-dasharray:none;stroke-opacity:1"
       id="path15" />
    <path
       d="M 3220,0 C 3050.2621,0 2887.474,67.42837 2767.4512,187.45117 2647.4284,307.47397 2580,470.26213 2580,640 c 0,169.73787 67.4284,332.526 187.4512,452.5488 C 2887.474,1212.5716 3050.2621,1280 3220,1280 c 169.7379,0 332.526,-67.4284 452.5488,-187.4512 C 3792.5716,972.526 3860,809.73787 3860,640 3860,470.26213 3792.5716,307.47397 3672.5488,187.45117 3552.526,67.42837 3389.7379,0 3220,0 Z m 0,36 c 144.2772,0 282.6466,57.3146 384.666,159.33398 C 3706.6854,297.35337 3764,435.72281 3764,580 c -0.361,169.03263 -79.2769,328.295 -213.5508,430.9727 -183.3557,-158.94765 -188.416,-344.89848 -188.416,-344.89848 92.54,-33.11353 245.7174,-76.02302 292.416,59.46289 69.439,-176.02191 -43.1139,-361.75292 -448.5195,-360.64453 -351.0268,0.95972 -353.0208,370.06363 -482.2363,434.07617 C 2692.7709,730.08055 2676.5284,655.5083 2676,580 2676,435.72281 2733.3146,297.35337 2835.334,195.33398 2937.3534,93.3146 3075.7228,36 3220,36 Z m -75.7441,437.55273 h 164.205 c 0.4259,3.35257 0.6476,6.72797 0.6641,10.10743 5e-4,46.08225 -37.3572,83.43992 -83.4394,83.43945 -46.0823,4.7e-4 -83.44,-37.3572 -83.4395,-83.43945 0.461,-3.40732 1.1322,-6.78293 2.0098,-10.10743 z"
       style="fill:#ffffff;fill-opacity:1;stroke:#000000;stroke-width:1;stroke-dasharray:none;stroke-opacity:1"
       id="path16" />
    <path
       d="M 640,0 C 470.2621,0 307.474,67.42837 187.4512,187.45117 67.4284,307.47397 0,470.26213 0,640 0,809.73787 67.4284,972.52603 187.4512,1092.5488 307.474,1212.5716 470.2621,1280 640,1280 c 169.7379,0 332.526,-67.4284 452.5488,-187.4512 C 1212.5716,972.52603 1280,809.73787 1280,640 1280,470.26213 1212.5716,307.47397 1092.5488,187.45117 972.526,67.42837 809.7379,0 640,0 Z m 0,36 C 784.2772,36 922.6466,93.314603 1024.666,195.33398 1126.6854,297.35337 1184,435.72281 1184,580 1183.639,749.03263 1104.7231,908.29505 970.4492,1010.9727 787.0935,852.02505 782.0332,666.07422 782.0332,666.07422 c 92.54,-33.11353 245.7174,-76.02302 292.416,59.46289 C 1143.8882,549.5152 1031.3353,363.78419 625.9297,364.89258 274.9029,365.8523 272.9089,734.95621 143.6934,798.96875 112.7709,730.08055 96.5284,655.5083 96,580 96,435.72281 153.3146,297.35337 255.334,195.33398 357.3534,93.314603 495.7228,36 640,36 Z m -75.7441,437.55273 h 164.205 c 0.4259,3.35257 0.6476,6.72797 0.6641,10.10743 5e-4,46.08225 -37.3572,83.43992 -83.4394,83.43945 -46.0823,4.7e-4 -83.44,-37.3572 -83.4395,-83.43945 0.461,-3.40732 1.1322,-6.78293 2.0098,-10.10743 z"
       style="fill:#000000;fill-opacity:1;stroke-width:1.1768px"
       id="path1" />
  </g>
</svg>
